# xmcd
#
# Track frame offsets: 
#        150
#        14103
#        30952
#        60870
#        79378
#        91801
#        115978
#        138304
#        155572
#        167413
#        189895
#        208735
#        234538
#        265579
#        292052
#        311618
#
# Disc length: 4332 seconds
#
# Revision: 1
# Processed by: cddbd v1.5.2PL0 Copyright (c) Steve Scherf et al.
# Submitted via: ExactAudioCopyFreeDBPlugin 1.0
#
DISCID=d110ea10
DTITLE=Various Artist - Simply Cool Jazz [CD2]
DYEAR=2014
DGENRE=Jazz
TTITLE0=Charlie Parker - Cool Blues
TTITLE1=Dizzy Gillespie - They Can't Take That Away From Me
TTITLE2=Bob James - Feel Like Making Love
TTITLE3=Mark Murphy - Time On My Hands
TTITLE4=Hampton Hawes - It's You Or No One
TTITLE5=Arturo O'Farrell - Poinciana
TTITLE6=Hank Mobley - Blues Number 2
TTITLE7=Carmen McRae - I'm Glad There Is You
TTITLE8=Hank Jones - Blue Monk
TTITLE9=Bob Berg - Autumn Leaves
TTITLE10=Lee Morgan - P.S. I Love You
TTITLE11=Jon Hendricks - In Summer
TTITLE12=Bobby Hutcherson - Whisper Not
TTITLE13=Yusef Lateef - Stella By Starlight
TTITLE14=Milt Jackson - Blues Mood
TTITLE15=Joe Williams - Detour Ahead
EXTD=YEAR: 2014
EXTT0=
EXTT1=
EXTT2=
EXTT3=
EXTT4=
EXTT5=
EXTT6=
EXTT7=
EXTT8=
EXTT9=
EXTT10=
EXTT11=
EXTT12=
EXTT13=
EXTT14=
EXTT15=
PLAYORDER=
